# xmcd
#
# Track frame offsets:
#	150
#	28058
#	43541
#	59432
#	90260
#	107225
#	128097
#	145319
#	163167
#	182575
#	199277
#	225416
#	241229
#	269947
#	284361
#	307135
#	322824
#
# Disc length: 4684 seconds
# Revision: 0
# Processed by: cddbd v1.5.2PL0 Copyright (c) Steve Scherf et al.
# Submitted via: dBpowerAMP V12.0
#
DISCID=f7124a11
DTITLE=Various Artist - Das Feuer dieser Nacht (Remix Album) CD1
DYEAR=2008
DGENRE=Discofox
TTITLE0=Tommy Fischer - Sirenen der Gefühle (Special Maxi Version)
TTITLE1=Tommy Fischer - Purer Wahnsinn
TTITLE2=Tommy Fischer - Das Feuer dieser Nacht (Single Version)
TTITLE3=Tommy Fischer - Süchtig nach dir (Maxi Version)
TTITLE4=Tommy Fischer - Du bist alles
TTITLE5=Tommy Fischer - Ich bin frei (Maxi Version)
TTITLE6=Tommy Fischer - Ich vermisse dich (Club Mix)
TTITLE7=Tommy Fischer - Sommer Sonne und ein Rendezvous
TTITLE8=Tommy Fischer - Sugar Baby Love (Dream Mix by Dj MoD)
TTITLE9=Tommy Fischer feat. Systems in Blue - Eloisa
TTITLE10=Tommy Fischer - Irgendwann (Maxi Version)
TTITLE11=Tommy Fischer feat. Systems in Blue - Ich will alles und noch mehr
TTITLE12=Tommy Fischer - Weil ich dich liebe (Maxi Version)
TTITLE13=Tommy Fischer and Kevin Marx - Aus die Maus
TTITLE14=Tommy Fischer - Wo bist du (Maxi Version)
TTITLE15=Tommy Fischer - Ich würde alles tun (Disco Edit)
TTITLE16=Tommy Fischer - Sag mir (Discofox Maxi Version)
EXTD=
EXTT0=
EXTT1=
EXTT2=
EXTT3=
EXTT4=
EXTT5=
EXTT6=
EXTT7=
EXTT8=
EXTT9=
EXTT10=
EXTT11=
EXTT12=
EXTT13=
EXTT14=
EXTT15=
EXTT16=
PLAYORDER=
